<svg width="19" height="19" viewBox="0 0 19 19" fill="none" xmlns="http://www.w3.org/2000/svg">
<path d="M15.0418 7.12467C15.0418 8.27259 14.7014 9.32552 14.1156 10.2043C13.2606 11.4709 11.9068 12.3655 10.3314 12.5951C10.0622 12.6426 9.78516 12.6663 9.50016 12.6663C9.21516 12.6663 8.93808 12.6426 8.66891 12.5951C7.0935 12.3655 5.73975 11.4709 4.88475 10.2043C4.29891 9.32552 3.9585 8.27259 3.9585 7.12467C3.9585 4.06092 6.43641 1.58301 9.50016 1.58301C12.5639 1.58301 15.0418 4.06092 15.0418 7.12467Z" stroke="#292D32" stroke-width="1.5" stroke-linecap="round" stroke-linejoin="round"/>
<path d="M16.8228 14.6225L15.5165 14.9312C15.2236 15.0025 14.994 15.2242 14.9307 15.5171L14.6536 16.6808C14.5032 17.3142 13.6957 17.5042 13.2761 17.0054L9.49986 12.6671L5.72361 17.0133C5.30403 17.5121 4.49653 17.3221 4.34611 16.6887L4.06903 15.525C3.99778 15.2321 3.76819 15.0025 3.48319 14.9391L2.17694 14.6304C1.57528 14.4879 1.36153 13.7358 1.79694 13.3004L4.88444 10.2129C5.73944 11.4796 7.09319 12.3742 8.66861 12.6037C8.93778 12.6512 9.21486 12.675 9.49986 12.675C9.78486 12.675 10.0619 12.6512 10.3311 12.6037C11.9065 12.3742 13.2603 11.4796 14.1153 10.2129L17.2028 13.3004C17.6382 13.7279 17.4244 14.48 16.8228 14.6225Z" stroke="#292D32" stroke-width="1.5" stroke-linecap="round" stroke-linejoin="round"/>
<path d="M9.95906 4.73449L10.4261 5.66865C10.4895 5.79532 10.6557 5.92199 10.8061 5.94574L11.6532 6.08824C12.1916 6.17532 12.3182 6.57116 11.9303 6.95907L11.2732 7.61615C11.1624 7.72698 11.0991 7.94074 11.1386 8.09908L11.3286 8.91449C11.4791 9.55574 11.1386 9.80906 10.5686 9.46864L9.77698 9.00156C9.63448 8.91448 9.39698 8.91448 9.25448 9.00156L8.46281 9.46864C7.89281 9.80114 7.5524 9.55574 7.70281 8.91449L7.89281 8.09908C7.92448 7.94866 7.86906 7.72698 7.75823 7.61615L7.10115 6.95907C6.71323 6.57116 6.8399 6.18324 7.37823 6.08824L8.22531 5.94574C8.36781 5.92199 8.53406 5.79532 8.5974 5.66865L9.06448 4.73449C9.29406 4.22783 9.70573 4.22783 9.95906 4.73449Z" stroke="#292D32" stroke-width="1.5" stroke-linecap="round" stroke-linejoin="round"/>
</svg>
