<svg width="21" height="25" viewBox="0 0 21 25" fill="none" xmlns="http://www.w3.org/2000/svg">
<path d="M3.924 24.5C3.252 24.5 2.68 24.2606 2.208 23.7817C1.736 23.3028 1.5 22.723 1.5 22.0422V3.19372H0V1.67185H6V0.5H15V1.67185H21V3.19372H19.5V22.0422C19.5 22.7422 19.269 23.3271 18.807 23.7969C18.345 24.2666 17.768 24.501 17.076 24.5H3.924ZM18 3.19372H3V22.0422C3 22.3151 3.0865 22.5393 3.2595 22.7148C3.4325 22.8904 3.654 22.9781 3.924 22.9781H17.0775C17.3075 22.9781 17.519 22.8807 17.712 22.6859C17.905 22.4911 18.001 22.276 18 22.0406V3.19372ZM7.212 19.9344H8.712V6.23748H7.212V19.9344ZM12.288 19.9344H13.788V6.23748H12.288V19.9344Z" fill="#292D32"/>
</svg>
